    <?xml version="1.0" standalone="no"?>
<!DOCTYPE svg PUBLIC "-//W3C//DTD SVG 20010904//EN"
 "http://www.w3.org/TR/2001/REC-SVG-20010904/DTD/svg10.dtd">
<svg version="1.0" xmlns="http://www.w3.org/2000/svg"
 width="1100.000000pt" height="350.000000pt" viewBox="0 0 1100.000000 350.000000"
 preserveAspectRatio="xMidYMid meet">

<g transform="translate(0.000000,350.000000) scale(0.100000,-0.100000)"
fill="#000000" stroke="none">
<path d="M2213 3244 c-24 -10 -13 -30 15 -29 35 0 40 -38 5 -43 -13 -2 -23
-10 -23 -17 0 -7 10 -15 23 -17 14 -2 23 -11 25 -25 3 -21 -1 -23 -38 -23 -29
0 -40 -4 -38 -12 5 -15 50 -22 84 -14 31 8 42 50 20 75 -15 16 -15 19 -1 24
18 8 20 50 2 65 -16 13 -58 22 -74 16z"/>
<path d="M2447 3193 c-13 -12 -7 -23 13 -23 21 0 21 1 0 -80 -4 -16 -15 -26
-29 -28 -34 -5 -20 -24 30 -38 56 -17 59 -17 59 1 0 8 -7 15 -15 15 -19 0 -19
14 0 76 23 75 20 84 -18 84 -19 0 -37 -3 -40 -7z"/>
<path d="M3840 2435 l0 -755 155 0 155 0 0 270 0 270 218 0 c309 0 388 23 499
143 78 85 123 214 123 355 0 252 -117 411 -339 458 -50 10 -157 14 -438 14
l-373 0 0 -755z m701 484 c98 -33 143 -108 137 -231 -4 -101 -37 -152 -118
-185 -50 -20 -73 -22 -232 -23 l-178 0 0 225 0 225 179 0 c106 0 192 -5 212
-11z"/>
<path d="M7050 2435 l0 -755 145 0 145 0 0 353 c0 398 3 421 68 478 49 44 91
59 160 59 74 0 118 -26 150 -90 22 -44 22 -50 22 -422 l0 -378 145 0 146 0 -3
444 -3 443 -35 69 c-61 119 -174 180 -330 178 -111 -2 -179 -31 -257 -110
l-63 -63 0 275 0 274 -145 0 -145 0 0 -755z"/>
<path d="M1964 3126 c-11 -29 1 -61 24 -64 18 -3 22 1 22 23 0 22 -4 26 -20
22 -25 -6 -26 8 -2 22 16 10 16 10 -1 11 -10 0 -20 -6 -23 -14z m33 -52 c-9
-9 -28 6 -21 18 4 6 10 6 17 -1 6 -6 8 -13 4 -17z"/>
<path d="M2613 3099 c-29 -22 -53 -44 -53 -50 0 -5 15 -17 34 -25 23 -12 32
-22 29 -34 -3 -9 2 -20 10 -23 10 -4 17 2 20 15 3 11 10 17 16 14 5 -4 13 -1
17 5 3 6 1 15 -5 19 -9 5 -7 20 8 57 30 78 5 85 -76 22z m38 -33 c-11 -27 -18
-30 -46 -20 -13 5 -9 11 16 30 38 28 43 26 30 -10z"/>
<path d="M1884 3116 c-11 -29 1 -61 24 -64 26 -4 37 17 28 53 -7 28 -43 35
-52 11z m43 -40 c-2 -5 -8 -11 -14 -13 -12 -4 -25 36 -16 50 7 12 35 -23 30
-37z"/>
<path d="M1822 3087 c-16 -44 -16 -42 18 -43 17 -1 30 1 30 4 0 13 -25 72 -30
72 -3 0 -11 -15 -18 -33z m18 -12 c0 -8 -4 -15 -10 -15 -5 0 -7 7 -4 15 4 8 8
15 10 15 2 0 4 -7 4 -15z"/>
<path d="M1747 3093 c-13 -12 -7 -60 8 -73 21 -18 47 -5 43 22 -2 17 -9 22
-26 21 -26 -3 -29 12 -4 26 14 9 15 10 1 11 -9 0 -19 -3 -22 -7z m34 -56 c-1
-12 -15 -9 -19 4 -3 6 1 10 8 8 6 -3 11 -8 11 -12z"/>
<path d="M2767 3077 c-3 -9 2 -17 13 -20 18 -5 17 -8 -8 -55 -23 -43 -30 -50
-49 -45 -42 10 -25 -22 23 -45 47 -23 82 -20 49 4 -17 13 -16 17 19 83 l36 69
-24 6 c-13 3 -31 8 -39 12 -8 3 -17 -1 -20 -9z"/>
<path d="M2330 3066 c0 -15 24 -28 34 -19 13 14 5 33 -14 33 -11 0 -20 -6 -20
-14z"/>
<path d="M6400 2930 l0 -150 -70 0 -70 0 0 -95 0 -95 69 0 70 0 3 -387 c3
-371 4 -390 24 -433 43 -91 119 -131 249 -133 44 -1 101 2 128 7 l47 7 0 102
0 102 -60 0 c-100 0 -95 -21 -98 385 l-3 350 81 0 80 0 0 95 0 95 -80 0 -80 0
0 150 0 150 -145 0 -145 0 0 -150z"/>
<path d="M1665 3060 c-3 -5 -2 -10 4 -10 6 0 15 -10 22 -21 9 -17 8 -23 -2
-30 -10 -6 -8 -9 8 -9 12 0 25 5 28 10 3 6 2 10 -3 10 -6 0 -15 14 -21 30 -10
30 -25 38 -36 20z"/>
<path d="M1599 3033 c-11 -13 -11 -17 -1 -20 6 -3 12 -13 12 -23 0 -23 13 -32
34 -24 17 7 22 44 6 44 -5 0 -10 9 -10 20 0 24 -22 26 -41 3z m31 -2 c0 -6 -4
-13 -10 -16 -5 -3 -10 1 -10 9 0 9 5 16 10 16 6 0 10 -4 10 -9z m18 -42 c-2
-6 -8 -10 -13 -10 -5 0 -11 4 -13 10 -2 6 4 11 13 11 9 0 15 -5 13 -11z"/>
<path d="M1525 3015 c-20 -16 -19 -16 3 -10 20 6 22 3 22 -34 0 -23 5 -41 11
-41 13 0 8 92 -6 97 -6 2 -20 -4 -30 -12z"/>
<path d="M2907 2972 l-25 -38 25 -22 c14 -12 23 -28 21 -34 -7 -20 -48 -22
-68 -3 -16 14 -18 14 -24 0 -4 -10 5 -22 27 -35 39 -24 46 -24 75 -4 26 18 29
59 7 84 -9 10 -13 24 -9 33 6 16 8 16 35 0 20 -12 32 -14 39 -7 8 8 -1 19 -29
37 -22 15 -42 27 -44 27 -3 0 -16 -17 -30 -38z"/>
<path d="M1453 2983 c-32 -12 7 -101 39 -91 28 10 33 37 12 65 -22 29 -32 34
-51 26z m39 -38 c6 -14 8 -28 5 -31 -10 -11 -37 17 -37 37 0 27 18 23 32 -6z"/>
<path d="M1370 2929 c-12 -9 -10 -10 8 -6 21 5 23 3 18 -18 -5 -19 -3 -22 14
-18 25 7 26 -12 3 -26 -16 -9 -16 -10 -2 -11 9 0 23 7 30 16 11 14 11 18 -2
28 -8 6 -18 19 -22 29 -7 19 -25 22 -47 6z"/>
<path d="M1306 2885 c-20 -20 -21 -32 -1 -15 23 19 38 2 32 -36 -7 -40 10 -45
38 -14 10 11 13 20 7 20 -6 0 -14 -6 -19 -12 -5 -8 -10 1 -13 26 -6 44 -20 55
-44 31z"/>
<path d="M3031 2876 c-28 -29 -25 -67 7 -81 29 -13 28 -23 -5 -31 -20 -5 -31
-2 -45 16 -16 20 -18 20 -25 4 -8 -21 29 -54 61 -54 24 0 62 24 88 55 25 29
23 80 -4 99 -31 22 -51 20 -77 -8z m64 -37 c0 -15 -7 -25 -19 -27 -27 -6 -38
19 -19 41 21 23 38 17 38 -14z"/>
<path d="M1234 2825 c-4 -8 -4 -22 0 -30 6 -17 46 -21 46 -4 0 5 -4 8 -9 5 -5
-3 -14 1 -20 8 -9 10 -9 16 -1 21 10 6 49 -31 50 -47 0 -4 -8 -12 -17 -18 -16
-10 -16 -10 2 -8 26 4 32 44 9 69 -20 23 -52 25 -60 4z"/>
<path d="M8673 2809 c-99 -17 -203 -69 -265 -136 -41 -43 -95 -138 -117 -207
-46 -137 -46 -369 -1 -500 74 -216 233 -328 465 -328 119 -1 176 11 271 57 97
47 174 123 219 217 l35 73 -142 3 c-107 2 -143 -1 -149 -10 -49 -85 -113 -120
-219 -119 -38 0 -83 6 -102 14 -69 30 -111 103 -124 216 l-7 61 378 0 378 0
-6 113 c-8 190 -51 301 -157 408 -119 120 -277 168 -457 138z m199 -240 c44
-23 83 -77 104 -145 27 -91 43 -84 -206 -84 l-220 0 0 25 c0 65 54 167 106
202 56 37 146 37 216 2z"/>
<path d="M10040 2806 c-88 -23 -157 -81 -209 -176 l-31 -55 0 113 0 112 -145
0 -145 0 0 -560 0 -560 144 0 145 0 3 338 c3 299 5 342 21 377 44 97 128 141
258 133 l69 -4 0 148 0 148 -32 -1 c-18 0 -53 -6 -78 -13z"/>
<path d="M5100 2794 c0 -4 93 -266 206 -582 229 -639 226 -626 167 -700 -44
-56 -87 -74 -155 -69 l-58 5 0 -110 0 -110 123 4 c106 3 129 7 179 30 68 31
117 78 140 133 10 22 122 341 249 710 127 369 234 676 236 683 4 9 -29 12
-143 12 l-149 0 -116 -408 -116 -407 -35 112 c-20 62 -75 245 -124 408 l-89
295 -157 0 c-87 0 -158 -3 -158 -6z"/>
<path d="M1170 2775 c-18 -22 5 -47 36 -39 27 7 33 -12 12 -35 -11 -11 -10
-13 1 -9 21 6 35 33 28 52 -5 14 -14 16 -37 11 -31 -7 -39 2 -18 23 8 8 8 12
1 12 -6 0 -16 -7 -23 -15z"/>
<path d="M3181 2776 c-9 -11 -7 -15 9 -19 26 -7 36 -33 19 -53 -11 -13 -25
-15 -70 -10 -82 8 -91 -8 -35 -63 29 -29 46 -39 51 -31 4 6 -2 22 -14 34 -30
32 -27 36 23 30 49 -7 81 6 91 36 13 40 -51 104 -74 76z"/>
<path d="M1118 2724 c-8 -7 13 -84 23 -84 4 0 11 5 14 11 4 6 13 8 21 5 16 -6
26 6 16 20 -11 17 -69 54 -74 48z m36 -55 c-8 -13 -24 -1 -24 18 0 13 3 13 15
3 8 -7 12 -16 9 -21z"/>
<path d="M1057 2654 c-3 -3 -1 -18 4 -33 5 -14 12 -32 15 -40 4 -11 7 -11 22
1 9 9 23 13 31 10 10 -3 12 0 8 12 -4 10 -7 20 -7 22 0 2 -6 4 -14 4 -7 0 -19
7 -26 15 -13 16 -23 19 -33 9z m38 -34 c3 -5 3 -15 -1 -21 -6 -11 -23 6 -24
24 0 10 18 9 25 -3z"/>
<path d="M3251 2622 c-19 -9 -44 -29 -55 -44 -16 -23 -18 -32 -8 -53 6 -14 23
-31 37 -37 22 -10 30 -8 53 9 36 27 39 49 11 79 l-22 24 31 0 c22 0 35 -7 43
-21 7 -14 14 -18 21 -11 14 14 -8 51 -38 62 -33 13 -33 13 -73 -8z m17 -74
c-3 -25 -34 -36 -51 -19 -14 14 9 41 35 41 14 0 19 -6 16 -22z"/>
<path d="M1002 2581 c-19 -12 -11 -55 11 -59 10 -2 25 5 33 15 14 17 15 16 11
-10 -3 -18 0 -26 7 -24 23 7 17 45 -10 66 -30 23 -33 24 -52 12z m36 -29 c3
-9 -2 -13 -14 -10 -9 1 -19 9 -22 16 -3 9 2 13 14 10 9 -1 19 -9 22 -16z"/>
<path d="M950 2500 c0 -17 30 -70 39 -70 5 0 12 7 15 16 4 10 12 14 22 10 12
-5 15 -2 10 10 -3 8 -6 18 -6 20 0 2 -9 4 -19 4 -11 0 -23 5 -26 10 -8 13 -35
13 -35 0z m46 -47 c-4 -4 -11 -1 -16 7 -16 25 -11 35 7 17 9 -9 13 -20 9 -24z"/>
<path d="M3367 2489 c-29 -15 -37 -24 -31 -37 14 -35 10 -57 -14 -60 -17 -3
-26 4 -36 30 -12 28 -16 30 -22 15 -9 -25 11 -65 40 -79 20 -9 30 -8 52 7 23
15 26 22 21 55 -6 50 16 62 41 21 28 -46 45 -27 20 25 -12 24 -24 44 -27 44
-4 -1 -23 -10 -44 -21z"/>
<path d="M900 2419 c-6 -11 -10 -25 -7 -32 2 -7 9 -2 16 10 l12 23 29 -33 c36
-40 40 -20 4 22 -30 36 -39 38 -54 10z"/>
<path d="M1603 2365 c-112 -35 -209 -127 -273 -263 -22 -46 -40 -87 -40 -93 0
-5 10 -9 22 -9 13 0 44 24 82 63 77 79 125 97 267 97 98 0 99 0 94 -22 -2 -13
-21 -126 -40 -253 -19 -126 -38 -246 -41 -265 -14 -91 -28 -114 -130 -221 -63
-66 -104 -118 -108 -136 -10 -45 14 -104 53 -130 57 -38 104 -46 166 -28 101
29 136 80 175 256 36 157 77 404 101 607 l23 192 176 0 177 0 -13 -92 c-7 -51
-20 -145 -29 -208 -23 -163 -30 -341 -16 -430 35 -222 184 -356 359 -319 107
22 196 87 252 183 32 57 60 151 60 203 0 31 -2 33 -35 33 -28 0 -35 -4 -35
-20 0 -42 -34 -102 -73 -131 -50 -36 -94 -45 -154 -30 -65 17 -99 44 -129 103
-25 48 -25 56 -24 235 0 102 7 248 15 325 8 77 15 142 15 144 0 2 90 4 200 4
l200 0 0 110 0 110 -627 -1 c-490 0 -637 -3 -670 -14z"/>
<path d="M862 2348 c-17 -17 -15 -46 6 -56 22 -12 42 -5 42 15 0 8 6 13 13 10
6 -2 11 -15 9 -28 -2 -18 0 -21 9 -12 20 20 2 60 -32 72 -38 13 -33 13 -47 -1z
m33 -18 c11 -17 -5 -32 -21 -19 -7 6 -11 15 -8 20 7 12 21 11 29 -1z"/>
<path d="M3456 2321 c8 -38 -10 -47 -35 -19 -21 22 -25 20 -22 -19 1 -11 -3
-24 -9 -28 -15 -9 -40 13 -40 37 0 11 -5 18 -12 15 -17 -6 -12 -46 9 -69 21
-24 54 -19 68 9 8 15 15 19 25 13 35 -22 63 27 40 71 -16 29 -30 23 -24 -10z"/>
<path d="M819 2248 c-10 -18 -8 -24 11 -40 32 -26 84 -21 88 9 7 45 -77 72
-99 31z m67 -12 c13 -10 16 -18 9 -25 -12 -12 -56 7 -63 27 -5 17 30 15 54 -2z"/>
<path d="M3474 2199 c-28 -8 -32 -13 -30 -42 1 -26 -3 -32 -19 -32 -14 0 -21
8 -23 28 -2 16 -9 27 -19 27 -21 0 -10 -60 14 -77 37 -28 89 0 80 43 -2 14 2
25 10 28 21 8 21 9 28 -23 4 -20 11 -28 20 -25 11 5 11 12 1 42 -14 41 -19 43
-62 31z"/>
<path d="M790 2160 c-6 -11 -8 -26 -4 -32 5 -7 10 -4 15 10 10 28 29 20 52
-20 15 -25 20 -29 27 -18 15 28 21 60 12 60 -5 0 -13 -10 -17 -22 -5 -17 -8
-19 -12 -8 -9 24 -35 50 -49 50 -7 0 -18 -9 -24 -20z"/>
<path d="M770 2075 c-17 -20 -8 -50 15 -51 11 -1 28 -5 38 -9 29 -12 49 2 45
32 -2 23 -8 28 -30 28 -14 0 -30 3 -34 8 -11 11 -20 9 -34 -8z m32 -20 c0 -5
-5 -11 -11 -13 -6 -2 -11 4 -11 13 0 9 5 15 11 13 6 -2 11 -8 11 -13z m53 -5
c3 -6 -1 -13 -10 -16 -19 -8 -30 0 -20 15 8 14 22 14 30 1z"/>
<path d="M3500 2055 c-9 -11 -16 -12 -31 -2 -40 25 -75 -34 -49 -83 12 -23 55
-27 67 -7 4 7 24 13 43 13 31 -1 35 2 38 26 6 55 -38 89 -68 53z m48 -38 c2
-12 -3 -17 -17 -17 -12 0 -21 6 -21 13 0 31 32 34 38 4z m-70 -10 c4 -20 -25
-34 -40 -19 -15 15 -1 44 19 40 10 -2 19 -11 21 -21z"/>
<path d="M748 1965 c-6 -29 -2 -35 28 -35 14 0 24 8 27 21 7 27 32 19 31 -10
0 -11 3 -21 8 -21 15 0 9 58 -7 64 -21 8 -45 -3 -45 -20 0 -8 -7 -14 -16 -14
-11 0 -14 6 -9 20 3 11 2 20 -3 20 -5 0 -12 -11 -14 -25z"/>
<path d="M3505 1917 c-12 -10 -16 -22 -13 -41 5 -23 2 -27 -16 -24 -15 2 -22
11 -24 31 -4 37 -28 29 -25 -9 3 -38 27 -54 83 -54 73 0 109 59 58 94 -27 19
-39 20 -63 3z m54 -31 c9 -10 8 -16 -4 -26 -17 -14 -45 -7 -45 13 0 29 30 37
49 13z"/>
<path d="M730 1881 c-21 -40 13 -67 76 -59 32 3 45 38 24 64 -19 22 -87 18
-100 -5z m97 -15 c11 -11 -10 -26 -35 -26 -35 0 -57 14 -47 30 7 11 70 8 82
-4z"/>
<path d="M824 1785 c-4 -11 -21 -15 -56 -15 -42 0 -49 -3 -44 -16 3 -9 6 -20
6 -25 0 -5 5 -9 10 -9 6 0 10 7 10 15 0 10 11 15 35 15 24 0 35 -5 35 -15 0
-8 5 -15 10 -15 6 0 10 18 10 40 0 41 -6 51 -16 25z"/>
<path d="M3564 1745 c-3 -19 -8 -35 -10 -35 -2 0 -27 11 -56 25 -59 29 -68 30
-68 11 0 -11 128 -76 151 -76 5 0 9 25 9 55 0 62 -16 74 -26 20z"/>
<path d="M782 1678 c-7 -7 -12 -18 -12 -25 0 -21 -16 -15 -28 10 -10 21 -11
20 -11 -10 -1 -30 2 -33 28 -33 23 0 30 5 33 23 4 30 30 28 39 -3 5 -21 7 -22
13 -8 17 39 -33 75 -62 46z"/>
<path d="M3420 1606 c0 -45 37 -76 91 -76 67 0 95 62 44 96 -35 23 -75 6 -75
-31 0 -14 -4 -25 -9 -25 -17 0 -33 29 -26 50 5 14 2 20 -9 20 -12 0 -16 -10
-16 -34z m130 -11 c15 -18 5 -35 -21 -35 -24 0 -37 29 -18 41 19 12 25 11 39
-6z"/>
<path d="M740 1553 c0 -16 5 -35 10 -43 7 -11 10 -7 10 19 0 25 4 32 14 28 8
-3 31 -9 50 -13 57 -10 43 13 -14 25 -69 15 -70 15 -70 -16z"/>
<path d="M3399 1486 c-24 -51 19 -106 57 -75 13 11 18 10 25 -4 12 -20 42 -22
57 -4 6 6 13 24 17 40 6 21 4 27 -8 27 -9 0 -17 -10 -19 -22 -4 -28 -26 -35
-34 -11 -3 10 -8 25 -11 33 -3 11 -9 7 -19 -13 -20 -37 -39 -29 -38 17 1 41
-11 47 -27 12z"/>
<path d="M820 1479 c0 -5 -10 -9 -21 -7 -25 4 -45 -22 -36 -46 9 -23 26 -20
20 4 -4 14 0 20 11 20 9 0 16 -4 16 -10 0 -5 5 -10 10 -10 6 0 10 9 10 20 0
27 26 25 35 -2 6 -20 8 -21 12 -5 3 10 -1 24 -7 32 -14 17 -50 20 -50 4z"/>
<path d="M812 1374 c-44 -30 -15 -88 33 -66 27 13 32 31 13 50 -9 9 -8 12 4
12 9 0 24 -10 32 -22 15 -22 16 -22 16 -2 0 43 -54 59 -98 28z m34 -25 c8 -14
-18 -31 -30 -19 -9 9 0 30 14 30 5 0 12 -5 16 -11z"/>
<path d="M3357 1336 c-8 -25 -13 -47 -9 -50 11 -12 20 -5 26 19 9 34 20 31 35
-10 23 -63 80 -71 100 -13 6 16 8 34 5 39 -10 16 -23 9 -26 -13 -6 -41 -40
-28 -68 24 -14 27 -30 48 -37 48 -6 0 -18 -20 -26 -44z"/>
<path d="M861 1284 c-23 -9 -31 -20 -31 -37 0 -35 23 -52 50 -37 18 9 21 18
16 41 -7 34 7 38 28 7 18 -26 32 -18 17 10 -14 26 -42 32 -80 16z m19 -38 c0
-8 -4 -17 -8 -20 -13 -8 -35 11 -28 23 10 16 36 14 36 -3z"/>
<path d="M3310 1231 c-23 -44 0 -89 40 -78 11 3 20 1 20 -4 0 -4 9 -13 21 -19
16 -9 25 -8 40 6 20 18 25 49 9 59 -5 3 -10 -3 -10 -14 0 -15 -6 -21 -21 -21
-17 0 -20 5 -17 25 6 28 -16 36 -26 10 -3 -8 -12 -15 -21 -15 -18 0 -20 41 -3
58 9 9 8 12 -5 12 -9 0 -21 -9 -27 -19z"/>
<path d="M923 1191 c-3 -12 -11 -17 -23 -14 -10 3 -21 0 -25 -7 -9 -15 3 -60
16 -60 6 0 8 9 4 19 -6 21 10 38 20 21 11 -18 27 -11 20 10 -5 16 -2 20 14 20
12 0 21 -7 21 -15 0 -8 5 -15 10 -15 16 0 11 26 -8 43 -24 22 -43 21 -49 -2z"/>
<path d="M3260 1120 c-38 -38 -16 -95 30 -83 11 3 19 -3 23 -17 8 -29 47 -23
64 9 14 30 1 61 -27 61 -11 0 -24 8 -29 19 -16 29 -39 33 -61 11z m40 -25 c13
-16 6 -35 -15 -35 -18 0 -28 17 -21 35 7 19 20 19 36 0z m58 -48 c2 -10 -3
-17 -12 -17 -18 0 -29 16 -21 31 9 14 29 6 33 -14z"/>
<path d="M942 1094 c-24 -17 -29 -43 -10 -62 30 -30 82 3 60 39 -10 16 -9 19
4 19 9 0 23 -8 30 -17 11 -15 13 -16 14 -2 0 38 -57 52 -98 23z m34 -43 c-10
-16 -36 -13 -36 3 0 17 21 27 34 16 4 -5 5 -13 2 -19z"/>
<path d="M1028 1029 c-10 -5 -18 -19 -18 -29 0 -10 8 -24 18 -29 15 -9 13 -10
-10 -11 -14 0 -28 6 -31 13 -2 6 -8 9 -12 5 -14 -13 16 -38 44 -38 27 0 71 36
71 57 0 13 -28 43 -38 43 -4 0 -15 -5 -24 -11z m38 -38 c-10 -16 -36 -13 -36
3 0 17 21 27 34 16 4 -5 5 -13 2 -19z"/>
<path d="M3220 1000 c-8 -15 -18 -20 -31 -17 -22 6 -37 -12 -19 -23 7 -4 9
-13 6 -19 -5 -7 1 -11 14 -11 12 0 37 -12 56 -26 29 -23 35 -24 40 -10 8 20
-26 118 -43 123 -6 2 -17 -5 -23 -17z m40 -58 c0 -12 -3 -12 -17 -1 -10 7 -19
14 -21 15 -1 1 1 9 4 19 7 17 8 17 21 -1 7 -10 13 -24 13 -32z"/>
<path d="M1110 951 c0 -11 -16 -33 -36 -49 -35 -29 -35 -31 -16 -41 27 -14 32
-14 26 3 -7 18 43 57 64 49 12 -5 11 1 -7 25 -26 37 -31 39 -31 13z"/>
<path d="M3096 898 c-21 -29 -20 -41 2 -61 26 -24 63 -22 69 3 3 11 9 17 14
14 12 -7 11 -54 -1 -54 -5 0 -10 -4 -10 -10 0 -18 29 -11 40 9 16 31 12 48
-21 86 -36 41 -70 46 -93 13z m59 -28 c0 -22 -39 -19 -43 3 -3 15 1 18 20 15
12 -2 23 -10 23 -18z"/>
<path d="M1150 841 c-24 -10 -45 -22 -47 -28 -4 -12 45 -58 54 -50 3 4 -2 16
-11 26 -18 19 -17 20 19 35 21 9 41 16 46 16 5 0 9 5 9 10 0 14 -18 12 -70 -9z"/>
<path d="M3007 812 c-15 -15 -27 -31 -27 -35 0 -13 23 -7 42 10 17 15 18 14
18 -25 0 -22 3 -47 6 -56 9 -24 60 -20 78 6 21 30 8 44 -18 19 -31 -29 -46
-11 -46 56 0 62 -12 68 -53 25z"/>
<path d="M1211 776 c-32 -34 -25 -71 13 -71 40 0 56 27 32 54 -19 21 -19 21 0
21 11 0 25 -5 32 -12 7 -7 12 -8 12 -2 0 17 -23 34 -45 34 -12 0 -32 -11 -44
-24z m39 -37 c0 -12 -29 -24 -37 -16 -3 4 -3 13 0 21 6 16 37 11 37 -5z"/>
<path d="M1323 741 c3 -14 -3 -31 -19 -50 -28 -34 -30 -47 -8 -55 23 -9 26 -8
20 12 -6 20 23 58 48 63 15 3 12 9 -15 28 -32 24 -32 24 -26 2z"/>
<path d="M2902 728 c-31 -31 6 -96 47 -83 12 3 21 11 21 16 0 5 5 9 10 9 15 0
12 -36 -5 -50 -8 -7 -15 -16 -15 -21 0 -16 19 -10 41 12 26 26 20 71 -13 106
-23 25 -67 30 -86 11z m56 -36 c3 -19 -1 -23 -15 -20 -10 2 -19 14 -21 26 -3
19 1 23 15 20 10 -2 19 -14 21 -26z"/>
<path d="M1397 683 c-10 -3 -16 -10 -14 -17 3 -7 -4 -23 -14 -37 -10 -13 -19
-27 -19 -31 0 -15 46 -8 79 13 l34 20 -22 16 c-12 8 -20 21 -17 29 6 14 4 15
-27 7z m33 -52 c0 -10 -30 -24 -37 -17 -3 3 -2 9 2 15 8 13 35 15 35 2z"/>
<path d="M2843 645 c-14 -10 -24 -12 -28 -5 -13 20 -31 10 -29 -17 1 -16 6
-27 12 -26 6 2 21 -15 33 -37 13 -22 28 -39 33 -37 13 4 30 102 22 123 -7 18
-16 18 -43 -1z m27 -52 c-1 -36 -2 -37 -15 -19 -16 21 -19 39 -8 49 15 16 23
5 23 -30z"/>
<path d="M1483 633 c-7 -2 -13 -14 -13 -25 0 -12 -8 -27 -17 -34 -24 -17 -6
-48 31 -52 22 -3 26 0 26 22 0 16 6 26 14 26 25 0 29 34 6 52 -23 19 -27 20
-47 11z m37 -33 c0 -11 -7 -20 -15 -20 -8 0 -15 9 -15 20 0 11 7 20 15 20 8 0
15 -9 15 -20z m-30 -45 c0 -8 -4 -15 -9 -15 -13 0 -22 16 -14 24 11 11 23 6
23 -9z"/>
<path d="M2694 597 c-20 -18 -25 -29 -20 -45 4 -12 15 -22 25 -22 14 0 17 -6
14 -23 -7 -35 19 -53 57 -37 39 16 39 34 0 25 -23 -5 -30 -3 -30 9 0 8 5 18
10 21 18 11 10 24 -17 27 -36 4 -40 25 -9 39 14 7 26 16 26 21 0 16 -29 8 -56
-15z"/>
<path d="M1564 575 c-4 -8 -4 -22 0 -30 3 -9 0 -15 -9 -15 -19 0 -19 -34 0
-50 20 -17 50 -8 50 15 0 11 8 26 18 33 21 16 21 26 1 46 -20 20 -53 21 -60 1z
m49 -20 c1 -5 -6 -11 -15 -13 -11 -2 -18 3 -18 13 0 17 30 18 33 0z m-23 -50
c0 -8 -7 -15 -15 -15 -8 0 -15 7 -15 15 0 8 7 15 15 15 8 0 15 -7 15 -15z"/>
<path d="M2590 557 c-31 -16 -38 -52 -12 -68 12 -8 17 -20 14 -35 -3 -16 1
-26 12 -30 20 -8 66 11 66 26 0 7 -6 8 -18 1 -10 -6 -24 -6 -32 -1 -12 7 -11
12 3 28 23 25 21 30 -8 24 -20 -3 -25 0 -25 16 0 11 8 22 20 25 11 3 20 10 20
16 0 14 -9 14 -40 -2z"/>
<path d="M1665 550 c-3 -5 5 -12 17 -16 21 -6 21 -7 -5 -20 -15 -8 -31 -23
-37 -34 -8 -15 -6 -22 12 -34 12 -9 28 -16 35 -16 20 0 15 17 -7 23 -31 8 -24
24 21 53 22 14 39 27 37 28 -13 11 -69 23 -73 16z"/>
<path d="M1750 501 c-5 -11 -10 -35 -10 -55 0 -26 5 -36 21 -41 40 -13 80 58
57 99 -13 22 -55 20 -68 -3z m50 -24 c0 -27 -25 -65 -35 -55 -4 4 -4 23 -1 43
8 40 36 49 36 12z"/>
<path d="M2452 508 c-17 -17 -15 -47 3 -54 9 -4 14 -16 13 -31 -4 -35 22 -51
56 -35 29 13 35 49 11 58 -11 5 -12 11 -5 24 16 29 2 50 -34 50 -18 0 -37 -5
-44 -12z m56 -25 c-2 -10 -10 -18 -18 -18 -8 0 -16 8 -18 18 -2 12 3 17 18 17
15 0 20 -5 18 -17z m12 -63 c0 -11 -7 -20 -15 -20 -8 0 -15 9 -15 20 0 11 7
20 15 20 8 0 15 -9 15 -20z"/>
<path d="M1866 487 c-24 -18 -17 -59 12 -72 29 -13 22 -31 -12 -28 -40 3 -32
-24 9 -29 37 -4 45 4 45 48 0 15 -6 24 -15 24 -21 0 -31 30 -14 40 7 5 21 4
31 -1 13 -7 18 -6 18 4 0 8 -10 17 -22 21 -31 8 -32 8 -52 -7z"/>
<path d="M2348 489 c-22 -12 -24 -55 -3 -63 12 -4 13 -11 7 -23 -5 -10 -7 -24
-5 -30 5 -15 73 -18 73 -3 0 6 -11 10 -25 10 -27 0 -35 24 -10 34 22 8 18 26
-6 26 -28 0 -21 34 9 38 12 2 22 8 22 13 0 12 -40 11 -62 -2z"/>
<path d="M1986 465 c-21 -21 -30 -78 -17 -104 19 -35 72 -26 85 15 8 27 -19
58 -45 51 -11 -3 -19 -2 -19 2 0 15 25 31 48 31 13 0 20 4 17 10 -9 15 -52 12
-69 -5z m41 -71 c8 -21 -13 -42 -28 -27 -13 13 -5 43 11 43 6 0 13 -7 17 -16z"/>
<path d="M2210 464 c0 -12 6 -15 25 -10 14 4 25 4 25 0 0 -3 -11 -19 -25 -36
-29 -34 -31 -50 -11 -67 18 -15 68 -10 74 7 3 9 -3 11 -22 6 -40 -10 -43 19
-7 63 17 21 31 41 31 45 0 5 -20 8 -45 8 -35 0 -45 -4 -45 -16z"/>
<path d="M2111 414 c-30 -80 -29 -84 24 -84 33 0 45 4 45 15 0 10 -10 15 -31
15 -27 0 -30 3 -23 23 3 12 13 34 20 49 17 34 17 38 0 38 -7 0 -23 -25 -35
-56z"/>
</g>
</svg>
